<?xml version="1.0" encoding="UTF-8"?>
<svg xmlns="http://www.w3.org/2000/svg" xmlns:xlink="http://www.w3.org/1999/xlink" version="1.1" viewBox="0 0 790 164">
  <defs>
    <style>
      .cls-1 {
        fill: url(#_名称未設定グラデーション_6);
      }

      .cls-2 {
        fill: #231815;
      }

      .cls-3 {
        fill: url(#_名称未設定グラデーション_6-2);
      }
    </style>
    <linearGradient id="_名称未設定グラデーション_6" data-name="名称未設定グラデーション 6" x1="146.04" y1="157.73" x2="146.04" y2="6.88" gradientUnits="userSpaceOnUse">
      <stop offset="0" stop-color="#601986"/>
      <stop offset=".14" stop-color="#651d87"/>
      <stop offset=".32" stop-color="#762a8d"/>
      <stop offset=".52" stop-color="#913f95"/>
      <stop offset=".74" stop-color="#b75ca2"/>
      <stop offset=".97" stop-color="#e681b1"/>
      <stop offset="1" stop-color="#ee87b4"/>
    </linearGradient>
    <linearGradient id="_名称未設定グラデーション_6-2" data-name="名称未設定グラデーション 6" x1="52.55" x2="52.55" xlink:href="#_名称未設定グラデーション_6"/>
  </defs>
  <!-- Generator: Adobe Illustrator 28.7.7, SVG Export Plug-In . SVG Version: 1.2.0 Build 194)  -->
  <g>
    <g id="_レイヤー_1" data-name="レイヤー_1">
      <g>
        <g>
          <path class="cls-2" d="M281.83,102.04h30.77v11.21h-43.7v-61.88h12.93v50.68Z"/>
          <path class="cls-2" d="M355.87,113.25h-12.93v-61.88h12.93v61.88Z"/>
          <path class="cls-2" d="M429.65,51.36h13.44l-21.03,61.88h-12.32l-20.86-61.88h13.88l13.28,46.89h.17l13.45-46.89Z"/>
          <path class="cls-2" d="M520.93,62.31h-32.84v13.01h30.17v10.95h-30.17v16.03h34.3v10.95h-46.97v-61.88h45.51v10.94Z"/>
          <path class="cls-2" d="M585.75,49.73c8.19,0,29.73,3.53,29.73,32.58s-21.55,32.58-29.73,32.58-29.73-3.53-29.73-32.58,21.55-32.58,29.73-32.58ZM585.75,103.94c6.98,0,16.81-4.31,16.81-21.63s-9.82-21.63-16.81-21.63-16.81,4.31-16.81,21.63,9.82,21.63,16.81,21.63Z"/>
          <path class="cls-2" d="M685.99,51.36h12.07v61.88h-12.93l-25.25-44.13h-.17v44.13h-12.07v-61.88h13.62l24.56,43.09h.17v-43.09Z"/>
          <path class="cls-2" d="M745.56,94.2c.09,3.45,1.81,10,13.1,10,6.12,0,12.93-1.47,12.93-8.02,0-4.83-4.65-6.12-11.21-7.67l-6.63-1.55c-10-2.33-19.65-4.57-19.65-18.19,0-6.9,3.71-19.05,23.79-19.05,18.96,0,24.05,12.41,24.13,20h-12.41c-.35-2.76-1.38-9.31-12.67-9.31-4.91,0-10.77,1.81-10.77,7.41,0,4.83,3.96,5.86,6.55,6.46l15.08,3.71c8.45,2.07,16.2,5.52,16.2,16.63,0,18.62-18.96,20.25-24.39,20.25-22.58,0-26.46-13.01-26.46-20.69h12.41Z"/>
        </g>
        <g>
          <polygon class="cls-1" points="108.38 6.88 99.83 34.83 155.74 34.83 118.17 157.73 146.13 157.73 192.25 6.88 108.38 6.88"/>
          <polygon class="cls-3" points="80.42 6.88 52.47 6.88 6.35 157.73 90.21 157.73 98.76 129.78 42.85 129.78 80.42 6.88"/>
        </g>
      </g>
    </g>
  </g>
</svg>